<?xml version="1.0" standalone="no"?>
<!DOCTYPE svg PUBLIC "-//W3C//DTD SVG 20010904//EN"
 "http://www.w3.org/TR/2001/REC-SVG-20010904/DTD/svg10.dtd">
<svg version="1.0" xmlns="http://www.w3.org/2000/svg"
 width="764.000000pt" height="848.000000pt" viewBox="0 0 764.000000 848.000000"
 preserveAspectRatio="xMidYMid meet">

<g transform="translate(0.000000,848.000000) scale(0.100000,-0.100000)"
fill="#000000" stroke="none">
<path d="M0 4240 l0 -4240 3820 0 3820 0 0 4240 0 4240 -3820 0 -3820 0 0
-4240z m3830 4066 c9 -26 -3 -91 -20 -101 -17 -11 -11 -25 10 -25 27 0 33 -18
22 -68 -6 -23 -6 -40 -2 -37 4 2 10 19 14 37 3 17 14 40 23 50 18 20 73 24 91
6 19 -19 14 -55 -10 -78 -24 -22 -18 -26 13 -10 14 8 19 21 19 51 0 51 31 111
72 140 37 27 158 40 182 20 10 -8 21 -8 40 -1 45 17 127 12 163 -10 87 -52 55
-210 -50 -249 -38 -15 -120 -14 -135 1 -8 8 -15 8 -26 -2 -10 -8 -28 -10 -48
-6 -40 8 -52 8 -101 0 -25 -4 -44 -1 -60 9 -20 13 -26 13 -42 1 -21 -16 -91
-19 -99 -5 -4 5 -19 4 -36 -2 -39 -15 -64 -1 -68 39 l-4 29 -16 -35 c-17 -33
-19 -34 -81 -37 -35 -2 -69 1 -75 7 -7 5 -17 5 -26 0 -22 -14 -63 -12 -87 5
-17 12 -23 12 -32 1 -8 -10 -41 -13 -121 -13 -153 0 -150 -5 -124 181 7 47 6
48 -14 37 -21 -11 -62 -119 -62 -163 0 -30 -19 -58 -39 -58 -29 0 -32 23 -16
108 18 95 19 125 3 120 -25 -8 -55 -67 -67 -130 -20 -98 -21 -99 -44 -96 -19
3 -22 9 -22 53 0 28 4 79 9 115 l8 65 -25 -24 c-25 -23 -57 -23 -57 -1 0 7 13
25 29 41 33 33 84 40 99 13 9 -16 11 -16 33 0 32 22 75 20 92 -4 l14 -20 18
20 c27 29 80 27 101 -5 15 -23 15 -30 -1 -100 -9 -42 -14 -83 -11 -90 7 -20
36 -7 36 15 0 10 12 33 27 50 24 29 31 32 68 27 53 -8 78 9 93 62 16 50 56 85
83 70 14 -7 19 -21 19 -54 0 -24 -5 -47 -12 -51 -21 -13 21 -33 58 -27 20 3
40 1 49 -7 12 -10 15 -7 20 17 11 49 36 113 52 128 23 24 62 19 73 -9z m936
-21 c7 -17 -14 -48 -27 -40 -4 3 -7 -3 -7 -12 0 -10 -5 -47 -11 -82 -20 -104
15 -105 71 -2 22 40 58 43 58 5 0 -14 8 -39 17 -55 16 -27 16 -32 3 -57 -18
-31 -54 -40 -78 -19 -11 10 -24 12 -37 7 -33 -14 -72 -11 -85 5 -12 14 -15 14
-30 0 -21 -19 -69 -19 -97 0 -74 52 -31 215 67 254 42 16 150 14 156 -4z
m1719 -650 l25 -24 0 -396 0 -396 -25 -24 -24 -25 -2581 0 -2581 0 -24 25 -25
24 0 396 0 396 25 24 24 25 2581 0 2581 0 24 -25z m200 -990 l25 -24 0 -2782
0 -2783 -22 -23 -21 -23 -2784 0 -2784 0 -24 25 -25 24 0 2781 0 2781 25 24
24 25 2781 0 2781 0 24 -25z m698 -3408 c3 -8 2 -19 -3 -26 -5 -10 -9 -8 -14
4 -3 9 -6 21 -6 26 0 14 17 11 23 -4z m-2958 -2452 l25 -24 0 -276 0 -276 -25
-24 -24 -25 -521 0 -521 0 -24 25 -25 24 0 274 c0 262 1 275 21 301 l20 26
525 0 525 0 24 -25z"/>
<path d="M3775 8260 c-4 -12 -5 -24 -2 -27 3 -2 8 5 12 17 4 12 5 24 2 27 -3
2 -8 -5 -12 -17z"/>
<path d="M4104 8231 c-48 -29 -72 -123 -40 -150 25 -21 53 4 71 61 9 29 20 65
25 81 7 22 6 27 -8 27 -9 0 -31 -9 -48 -19z"/>
<path d="M4328 8240 c12 -5 22 -11 22 -12 0 -2 -7 -28 -15 -58 -8 -30 -15 -66
-15 -79 0 -21 3 -23 33 -17 47 9 77 48 77 100 0 56 -22 76 -81 75 -36 0 -40
-2 -21 -9z"/>
<path d="M4211 8190 c-13 -62 -14 -120 -2 -120 20 0 59 60 65 101 4 24 12 49
18 57 10 11 7 11 -17 0 -22 -10 -29 -10 -33 0 -8 25 -21 10 -31 -38z"/>
<path d="M3436 8118 c-12 -45 -7 -54 15 -31 13 12 19 28 16 37 -9 23 -24 20
-31 -6z"/>
<path d="M3525 8129 c-11 -17 4 -59 20 -59 14 0 35 37 35 61 0 13 -47 11 -55
-2z"/>
<path d="M3917 8133 c-4 -3 -7 -11 -7 -17 0 -6 5 -5 12 2 6 6 9 14 7 17 -3 3
-9 2 -12 -2z"/>
<path d="M3359 8104 c-11 -30 -3 -46 11 -24 10 16 13 50 5 50 -3 0 -10 -12
-16 -26z"/>
<path d="M3635 8118 c-10 -25 1 -48 23 -48 22 0 42 19 42 39 0 12 -3 12 -12 3
-17 -17 -36 -15 -41 6 -4 16 -4 16 -12 0z"/>
<path d="M4633 8240 c-13 -5 -32 -24 -43 -42 -35 -58 -20 -139 23 -122 17 6
57 101 57 132 0 10 5 23 12 30 9 9 8 12 -7 11 -11 0 -30 -4 -42 -9z"/>
<path d="M1297 7612 c-15 -17 -17 -59 -17 -400 l0 -381 22 -15 c20 -14 281
-16 2578 -16 2297 0 2558 2 2578 16 l22 15 0 383 c0 358 -1 384 -18 399 -17
16 -211 17 -2584 17 -2472 0 -2565 -1 -2581 -18z m4654 -298 c95 -49 55 -194
-53 -194 -32 0 -47 7 -75 35 -32 32 -35 39 -30 78 11 80 86 119 158 81z m376
1 c14 -10 24 -12 28 -5 13 22 25 8 25 -30 0 -40 0 -40 -40 -40 -35 0 -39 3
-37 23 2 18 -4 23 -30 25 -65 6 -96 -66 -48 -113 26 -27 46 -31 77 -14 29 15
49 -5 26 -27 -20 -20 -79 -22 -112 -5 -26 15 -56 66 -56 98 0 27 37 82 63 93
34 14 80 12 104 -5z m-4439 -25 c2 -14 -3 -34 -11 -44 -12 -17 -12 -21 5 -38
17 -17 20 -17 34 -3 32 31 74 11 74 -35 0 -14 -5 -31 -12 -38 -18 -18 -56 -14
-70 7 -12 19 -12 19 -25 1 -10 -14 -25 -18 -73 -17 l-60 0 -1 31 -1 31 -14
-33 c-17 -39 -39 -37 -39 2 1 25 0 26 -12 10 -7 -10 -13 -24 -13 -31 0 -7 -7
-13 -15 -13 -8 0 -15 9 -15 20 0 25 -12 26 -27 1 -10 -15 -25 -19 -93 -19 -74
-1 -84 1 -106 23 -28 28 -30 51 -10 100 16 38 42 55 85 55 32 0 57 -29 47 -56
-8 -21 -36 -17 -36 6 0 28 -35 26 -54 -2 -19 -27 -21 -69 -4 -86 7 -7 28 -12
47 -12 31 0 38 5 51 33 18 38 57 49 78 20 12 -17 14 -17 23 0 6 9 17 17 25 17
9 0 12 -5 8 -12 -6 -10 -4 -10 7 0 16 15 49 16 49 1 0 -8 5 -8 15 1 24 20 42
6 37 -29 -9 -62 14 -29 25 35 12 68 35 107 62 102 9 -2 17 -14 19 -28z m1012
-6 c0 -14 -5 -34 -10 -45 -11 -20 -5 -23 51 -19 28 1 45 -13 51 -45 3 -17 6
-16 23 13 19 31 48 45 43 20 -1 -7 4 -23 11 -36 10 -18 10 -26 0 -38 -15 -19
-49 -18 -49 1 0 8 5 15 10 15 6 0 10 5 10 12 0 7 -6 6 -17 -4 -10 -8 -27 -19
-38 -23 -30 -12 -144 -15 -150 -5 -4 6 -13 5 -24 -2 -29 -18 -54 -3 -48 29 5
26 4 26 -9 8 -8 -10 -14 -24 -14 -31 0 -8 -21 -12 -65 -11 -72 0 -81 9 -67 61
12 43 32 45 33 4 l1 -33 14 33 c19 44 38 42 31 -4 -4 -25 -2 -34 6 -31 7 2 14
17 17 33 3 17 12 30 23 32 12 3 15 -1 11 -15 -5 -15 -4 -15 4 -3 6 8 23 15 39
16 15 1 31 3 36 3 4 1 7 8 7 16 0 30 30 75 50 75 15 0 20 -7 20 -26z m-299 -5
c14 -14 18 -27 14 -42 -8 -27 -42 -57 -64 -57 -12 0 -20 -13 -27 -42 -11 -50
-33 -59 -63 -29 -38 38 -20 140 30 175 33 22 85 20 110 -5z m-431 -81 c0 -14
-5 -18 -15 -14 -10 4 -15 -1 -15 -15 0 -18 4 -20 25 -15 14 4 25 2 25 -3 0
-19 -27 -29 -77 -29 -53 0 -69 12 -53 38 7 11 11 11 24 1 14 -12 16 -10 16 7
0 15 -5 20 -15 16 -9 -4 -15 0 -15 8 0 23 8 26 56 26 38 0 44 -3 44 -20z m968
5 c-5 -26 -38 -29 -38 -4 0 15 6 21 21 21 14 0 19 -5 17 -17z m-8 -63 c0 -13
-7 -20 -20 -20 -13 0 -20 7 -20 20 0 13 7 20 20 20 13 0 20 -7 20 -20z"/>
<path d="M5887 7274 c-8 -8 1 -24 14 -24 5 0 9 7 9 15 0 15 -12 20 -23 9z"/>
<path d="M5884 7205 c0 -28 4 -35 19 -35 13 0 17 5 13 16 -3 9 -6 24 -6 35 0
10 -6 19 -13 19 -8 0 -13 -13 -13 -35z"/>
<path d="M1846 7264 c-4 -14 -5 -29 -2 -31 3 -3 8 7 12 21 3 15 4 29 1 32 -2
3 -8 -7 -11 -22z"/>
<path d="M1567 7176 c-6 -15 1 -26 15 -26 11 0 10 27 -1 34 -5 3 -11 0 -14 -8z"/>
<path d="M1837 7176 c-6 -15 1 -26 15 -26 11 0 10 27 -1 34 -5 3 -11 0 -14 -8z"/>
<path d="M1937 7183 c-13 -12 -7 -33 8 -33 8 0 15 9 15 20 0 20 -11 26 -23 13z"/>
<path d="M2867 7273 c-4 -3 -7 -13 -7 -22 1 -13 3 -13 11 2 11 19 8 33 -4 20z"/>
<path d="M2880 7200 c-23 -5 -26 -11 -21 -40 3 -20 32 -9 42 16 11 32 11 33
-21 24z"/>
<path d="M2797 7178 c-7 -25 -3 -33 12 -23 13 8 15 45 2 45 -5 0 -11 -10 -14
-22z"/>
<path d="M2930 7170 c0 -11 7 -20 15 -20 8 0 15 9 15 20 0 11 -7 20 -15 20 -8
0 -15 -9 -15 -20z"/>
<path d="M2496 7251 c-20 -22 -32 -91 -21 -118 6 -15 9 -13 16 12 6 20 5 32
-4 37 -9 5 -8 11 5 20 9 7 18 22 20 33 5 32 34 25 30 -7 -3 -22 0 -27 12 -22
18 7 30 39 21 54 -10 17 -61 11 -79 -9z"/>
<path d="M2079 6543 c-51 -8 -132 -66 -163 -117 -38 -62 -48 -162 -22 -231 21
-54 100 -130 152 -144 199 -55 375 98 334 293 -28 138 -155 221 -301 199z
m161 -58 c66 -33 110 -108 110 -190 -1 -135 -91 -225 -225 -225 -44 0 -131 37
-157 66 -75 85 -75 228 0 307 72 76 173 92 272 42z"/>
<path d="M2113 6464 c-8 -21 13 -42 28 -27 13 13 5 43 -11 43 -6 0 -13 -7 -17
-16z"/>
<path d="M2062 6418 c-7 -7 -12 -22 -12 -35 0 -15 -6 -23 -18 -23 -42 0 -56
-48 -21 -72 18 -12 20 -17 10 -35 -16 -31 -4 -53 31 -53 19 0 37 -9 51 -26 24
-28 52 -25 62 7 5 14 16 19 41 19 39 0 52 19 36 54 -8 18 -6 25 9 34 34 21 18
72 -22 72 -13 0 -19 10 -21 32 -3 38 -29 49 -56 25 -15 -13 -20 -14 -36 -1
-24 17 -38 18 -54 2z m48 -40 c16 -10 24 -10 40 0 27 16 28 16 32 -15 2 -20 9
-29 26 -31 26 -4 28 -14 7 -32 -11 -9 -14 -22 -10 -42 6 -27 5 -28 -18 -23
-21 6 -28 2 -39 -20 l-15 -27 -17 27 c-14 21 -23 25 -42 21 -22 -6 -23 -4 -17
25 4 24 2 34 -10 41 -24 13 -21 26 6 30 16 2 23 11 25 31 4 31 5 31 32 15z"/>
<path d="M1994 6408 c-9 -15 27 -41 40 -28 6 6 5 15 -4 25 -15 18 -26 19 -36
3z"/>
<path d="M2237 6413 c-10 -9 -9 -43 1 -43 12 0 32 23 32 37 0 14 -22 18 -33 6z"/>
<path d="M1977 6284 c-14 -15 -6 -34 14 -34 14 0 19 5 17 17 -3 18 -20 27 -31
17z"/>
<path d="M2255 6280 c-8 -13 3 -30 20 -30 20 0 30 21 14 31 -18 11 -26 11 -34
-1z"/>
<path d="M2057 6183 c-10 -9 -8 -43 2 -43 5 0 14 7 21 15 17 21 -4 48 -23 28z"/>
<path d="M2180 6171 c0 -24 18 -37 31 -24 13 13 1 43 -17 43 -8 0 -14 -9 -14
-19z"/>
<path d="M2764 6539 c-105 -30 -184 -132 -184 -236 0 -86 18 -132 76 -190 56
-56 97 -73 182 -73 230 0 335 294 159 445 -64 55 -157 76 -233 54z m176 -54
c66 -33 110 -108 110 -190 -1 -135 -91 -225 -225 -225 -44 0 -131 37 -157 66
-75 85 -75 228 0 307 72 76 173 92 272 42z"/>
<path d="M2813 6464 c-8 -21 13 -42 28 -27 13 13 5 43 -11 43 -6 0 -13 -7 -17
-16z"/>
<path d="M2762 6418 c-7 -7 -12 -22 -12 -35 0 -15 -6 -23 -18 -23 -42 0 -56
-48 -21 -72 18 -12 20 -17 10 -35 -16 -31 -4 -53 31 -53 19 0 37 -9 51 -26 24
-28 52 -25 62 7 5 14 16 19 41 19 39 0 52 19 36 54 -8 18 -6 25 9 34 34 21 18
72 -22 72 -13 0 -19 10 -21 32 -3 38 -29 49 -56 25 -15 -13 -20 -14 -36 -1
-24 17 -38 18 -54 2z m48 -40 c16 -10 24 -10 40 0 27 16 28 16 32 -15 2 -20 9
-29 26 -31 26 -4 28 -14 7 -32 -11 -9 -14 -22 -10 -42 6 -27 5 -28 -18 -23
-21 6 -28 2 -39 -20 l-15 -27 -17 27 c-14 21 -23 25 -42 21 -22 -6 -23 -4 -17
25 4 24 2 34 -10 41 -24 13 -21 26 6 30 16 2 23 11 25 31 4 31 5 31 32 15z"/>
<path d="M2694 6408 c-9 -15 27 -41 40 -28 6 6 5 15 -4 25 -15 18 -26 19 -36
3z"/>
<path d="M2937 6413 c-10 -9 -9 -43 1 -43 12 0 32 23 32 37 0 14 -22 18 -33 6z"/>
<path d="M2677 6284 c-14 -15 -6 -34 14 -34 14 0 19 5 17 17 -3 18 -20 27 -31
17z"/>
<path d="M2955 6280 c-8 -13 3 -30 20 -30 20 0 30 21 14 31 -18 11 -26 11 -34
-1z"/>
<path d="M2757 6183 c-10 -9 -8 -43 2 -43 5 0 14 7 21 15 17 21 -4 48 -23 28z"/>
<path d="M2880 6171 c0 -24 18 -37 31 -24 13 13 1 43 -17 43 -8 0 -14 -9 -14
-19z"/>
<path d="M5575 6541 c-122 -30 -194 -123 -195 -250 -1 -214 240 -329 413 -197
19 14 47 50 62 78 104 190 -71 419 -280 369z m165 -56 c66 -33 110 -108 110
-190 -1 -135 -91 -225 -225 -225 -44 0 -131 37 -157 66 -75 85 -75 228 0 307
72 76 173 92 272 42z"/>
<path d="M5613 6464 c-8 -21 13 -42 28 -27 13 13 5 43 -11 43 -6 0 -13 -7 -17
-16z"/>
<path d="M5562 6418 c-7 -7 -12 -22 -12 -35 0 -15 -6 -23 -18 -23 -42 0 -56
-48 -21 -72 18 -12 20 -17 10 -35 -16 -31 -4 -53 31 -53 19 0 37 -9 51 -26 24
-28 52 -25 62 7 5 14 16 19 41 19 39 0 52 19 36 54 -8 18 -6 25 9 34 34 21 18
72 -22 72 -13 0 -19 10 -21 32 -3 38 -29 49 -56 25 -15 -13 -20 -14 -36 -1
-24 17 -38 18 -54 2z m48 -40 c16 -10 24 -10 40 0 27 16 28 16 32 -15 2 -20 9
-29 26 -31 26 -4 28 -14 7 -32 -11 -9 -14 -22 -10 -42 6 -27 5 -28 -18 -23
-21 6 -28 2 -39 -20 l-15 -27 -17 27 c-14 21 -23 25 -42 21 -22 -6 -23 -4 -17
25 4 24 2 34 -10 41 -24 13 -21 26 6 30 16 2 23 11 25 31 4 31 5 31 32 15z"/>
<path d="M5494 6408 c-9 -15 27 -41 40 -28 6 6 5 15 -4 25 -15 18 -26 19 -36
3z"/>
<path d="M5737 6413 c-10 -9 -9 -43 1 -43 12 0 32 23 32 37 0 14 -22 18 -33 6z"/>
<path d="M5477 6284 c-14 -15 -6 -34 14 -34 14 0 19 5 17 17 -3 18 -20 27 -31
17z"/>
<path d="M5755 6280 c-8 -13 3 -30 20 -30 20 0 30 21 14 31 -18 11 -26 11 -34
-1z"/>
<path d="M5557 6183 c-10 -9 -8 -43 2 -43 5 0 14 7 21 15 17 21 -4 48 -23 28z"/>
<path d="M5680 6171 c0 -24 18 -37 31 -24 13 13 1 43 -17 43 -8 0 -14 -9 -14
-19z"/>
<path d="M3537 6529 c-58 -14 -108 -43 -153 -91 -77 -80 -100 -154 -81 -264 7
-39 18 -78 25 -86 14 -18 83 -31 163 -31 145 -1 283 137 282 283 0 73 -12 141
-30 161 -8 9 -38 19 -70 23 -32 4 -66 8 -78 11 -11 2 -37 -1 -58 -6z m150 -31
c18 -2 36 -7 39 -11 10 -9 23 -92 23 -147 1 -92 -74 -197 -173 -241 -43 -19
-60 -21 -128 -15 -119 10 -114 5 -124 124 -6 68 -4 85 15 128 28 63 83 120
146 151 50 24 75 25 202 11z"/>
<path d="M4237 6529 c-58 -14 -108 -44 -153 -91 -77 -80 -100 -154 -81 -264 7
-39 18 -78 25 -86 14 -18 83 -31 163 -31 142 -1 282 136 283 278 0 76 -15 153
-33 168 -9 8 -36 17 -61 20 -25 4 -58 8 -75 11 -16 3 -47 1 -68 -5z m150 -31
c18 -2 36 -7 39 -11 10 -9 23 -92 23 -147 1 -92 -74 -197 -173 -241 -43 -19
-60 -21 -128 -15 -119 10 -114 5 -124 124 -6 68 -4 85 15 128 28 63 83 120
146 151 50 24 75 25 202 11z"/>
<path d="M6337 6529 c-115 -27 -202 -112 -232 -224 -12 -47 -12 -70 -3 -129 6
-39 18 -78 25 -87 15 -18 91 -33 169 -33 138 1 277 140 278 279 0 73 -15 153
-30 166 -12 9 -148 41 -164 38 -3 -1 -22 -5 -43 -10z m150 -31 c18 -2 36 -7
39 -11 10 -9 23 -92 23 -147 1 -92 -74 -197 -173 -241 -43 -19 -60 -21 -128
-15 -42 4 -84 9 -92 12 -20 8 -25 23 -32 112 -6 68 -4 85 15 128 28 63 83 120
146 151 50 24 75 25 202 11z"/>
<path d="M1201 6461 c-88 -124 -80 -280 20 -380 51 -51 132 -85 204 -85 68 1
149 31 186 70 l23 25 -189 190 c-105 105 -198 194 -207 200 -13 7 -21 2 -37
-20z m3 -65 c-51 -91 -31 -219 46 -293 52 -50 96 -68 175 -68 58 0 78 5 119
28 39 22 46 23 32 8 -25 -27 -99 -51 -161 -51 -132 0 -255 128 -255 266 0 37
21 101 46 139 28 42 26 22 -2 -29z"/>
<path d="M4701 6461 c-42 -59 -61 -114 -61 -181 0 -115 55 -201 158 -252 54
-27 78 -33 127 -32 68 1 150 32 186 70 l23 25 -199 199 c-110 110 -203 200
-207 200 -4 0 -16 -13 -27 -29z m3 -65 c-51 -91 -31 -219 46 -293 52 -50 96
-68 175 -68 58 0 78 5 119 28 39 22 46 23 32 8 -25 -27 -99 -51 -161 -51 -132
0 -255 128 -255 266 0 37 21 101 46 139 28 42 26 22 -2 -29z"/>
<path d="M2090 5876 c0 -16 43 -95 50 -91 10 6 -4 60 -21 81 -10 13 -29 19
-29 10z"/>
<path d="M3490 5877 c0 -2 9 -26 21 -52 14 -32 24 -44 31 -37 12 12 -19 84
-39 90 -7 2 -13 2 -13 -1z"/>
<path d="M6298 5873 c-7 -12 32 -94 42 -88 11 7 -5 65 -24 83 -7 8 -16 10 -18
5z"/>
<path d="M4060 5782 c0 -38 7 -110 16 -160 15 -90 15 -92 -5 -118 -68 -86 34
-209 133 -161 27 13 35 13 51 1 47 -34 127 1 145 64 23 75 -34 146 -114 140
-79 -5 -185 129 -202 256 -10 69 -24 55 -24 -22z m106 -191 c34 -37 49 -59 35
-51 -13 6 -36 10 -52 8 -26 -4 -30 -1 -38 31 -19 78 -22 96 -14 86 5 -5 36
-39 69 -74z"/>
<path d="M4864 5839 c-18 -5 -54 -24 -80 -41 -68 -46 -104 -118 -104 -207 0
-84 23 -134 83 -187 52 -46 102 -64 176 -64 229 0 334 295 158 445 -64 55
-157 76 -233 54z m114 -29 c107 -25 172 -107 172 -217 -1 -170 -161 -272 -315
-199 -59 27 -77 46 -104 106 -37 82 -22 181 37 243 40 43 78 60 162 76 3 0 24
-4 48 -9z"/>
<path d="M4913 5764 c-8 -21 13 -42 28 -27 13 13 5 43 -11 43 -6 0 -13 -7 -17
-16z"/>
<path d="M4862 5718 c-7 -7 -12 -22 -12 -35 0 -15 -6 -23 -18 -23 -42 0 -56
-48 -21 -72 18 -12 20 -17 10 -35 -16 -31 -4 -53 31 -53 19 0 37 -9 51 -26 24
-28 52 -25 62 7 5 14 16 19 41 19 39 0 52 19 36 54 -8 18 -6 25 9 34 34 21 18
72 -22 72 -13 0 -19 10 -21 32 -3 38 -29 49 -56 25 -15 -13 -20 -14 -36 -1
-24 17 -38 18 -54 2z m48 -40 c16 -10 24 -10 40 0 27 16 28 16 32 -15 2 -20 9
-29 26 -31 26 -4 28 -14 7 -32 -11 -9 -14 -22 -10 -42 6 -27 5 -28 -18 -23
-21 6 -28 2 -39 -20 l-15 -27 -17 27 c-14 21 -23 25 -42 21 -22 -6 -23 -4 -17
25 4 24 2 34 -10 41 -24 13 -21 26 6 30 16 2 23 11 25 31 4 31 5 31 32 15z"/>
<path d="M4794 5708 c-9 -15 27 -41 40 -28 6 6 5 15 -4 25 -15 18 -26 19 -36
3z"/>
<path d="M5037 5713 c-10 -9 -9 -43 1 -43 12 0 32 23 32 37 0 14 -22 18 -33 6z"/>
<path d="M4777 5584 c-14 -15 -6 -34 14 -34 14 0 19 5 17 17 -3 18 -20 27 -31
17z"/>
<path d="M5055 5580 c-8 -13 3 -30 20 -30 20 0 30 21 14 31 -18 11 -26 11 -34
-1z"/>
<path d="M4857 5483 c-10 -9 -8 -43 2 -43 5 0 14 7 21 15 17 21 -4 48 -23 28z"/>
<path d="M4980 5471 c0 -24 18 -37 31 -24 13 13 1 43 -17 43 -8 0 -14 -9 -14
-19z"/>
<path d="M5575 5841 c-149 -36 -229 -181 -183 -333 17 -59 88 -133 145 -152
130 -44 256 2 318 116 104 190 -71 419 -280 369z m165 -56 c66 -33 110 -108
110 -190 -1 -135 -91 -225 -225 -225 -44 0 -131 37 -157 66 -75 85 -75 228 0
307 72 76 173 92 272 42z"/>
<path d="M5613 5764 c-8 -21 13 -42 28 -27 13 13 5 43 -11 43 -6 0 -13 -7 -17
-16z"/>
<path d="M5562 5718 c-7 -7 -12 -22 -12 -35 0 -15 -6 -23 -18 -23 -42 0 -56
-48 -21 -72 18 -12 20 -17 10 -35 -16 -31 -4 -53 31 -53 19 0 37 -9 51 -26 24
-28 52 -25 62 7 5 14 16 19 41 19 39 0 52 19 36 54 -8 18 -6 25 9 34 34 21 18
72 -22 72 -13 0 -19 10 -21 32 -3 38 -29 49 -56 25 -15 -13 -20 -14 -36 -1
-24 17 -38 18 -54 2z m48 -40 c16 -10 24 -10 40 0 27 16 28 16 32 -15 2 -20 9
-29 26 -31 26 -4 28 -14 7 -32 -11 -9 -14 -22 -10 -42 6 -27 5 -28 -18 -23
-21 6 -28 2 -39 -20 l-15 -27 -17 27 c-14 21 -23 25 -42 21 -22 -6 -23 -4 -17
25 4 24 2 34 -10 41 -24 13 -21 26 6 30 16 2 23 11 25 31 4 31 5 31 32 15z"/>
<path d="M5494 5708 c-9 -15 27 -41 40 -28 6 6 5 15 -4 25 -15 18 -26 19 -36
3z"/>
<path d="M5737 5713 c-10 -9 -9 -43 1 -43 12 0 32 23 32 37 0 14 -22 18 -33 6z"/>
<path d="M5477 5584 c-14 -15 -6 -34 14 -34 14 0 19 5 17 17 -3 18 -20 27 -31
17z"/>
<path d="M5755 5580 c-8 -13 3 -30 20 -30 20 0 30 21 14 31 -18 11 -26 11 -34
-1z"/>
<path d="M5557 5483 c-10 -9 -8 -43 2 -43 5 0 14 7 21 15 17 21 -4 48 -23 28z"/>
<path d="M5680 5471 c0 -24 18 -37 31 -24 13 13 1 43 -17 43 -8 0 -14 -9 -14
-19z"/>
<path d="M4090 5830 c0 -21 32 -85 53 -108 41 -44 133 -75 143 -48 6 17 -20
83 -44 110 -35 39 -152 75 -152 46z m95 -34 c23 -10 41 -28 55 -56 12 -23 19
-44 17 -47 -3 -2 -26 4 -51 15 -33 15 -50 31 -66 61 -23 47 -15 52 45 27z"/>
<path d="M1924 5809 c-7 -13 15 -59 29 -59 5 0 7 9 4 20 -7 28 28 35 84 16 51
-18 59 -19 59 -7 0 30 -159 57 -176 30z"/>
<path d="M2241 5810 c-34 -8 -69 -35 -59 -45 3 -3 18 1 34 10 16 8 46 15 66
15 30 0 37 -4 35 -17 -4 -30 13 -30 31 -1 9 15 14 29 12 31 -11 10 -88 15
-119 7z"/>
<path d="M3324 5809 c-7 -13 15 -59 29 -59 5 0 7 9 4 20 -7 28 28 35 84 16 51
-18 59 -19 59 -7 0 30 -159 57 -176 30z"/>
<path d="M3625 5805 c-22 -8 -41 -15 -42 -15 -5 0 -3 -30 1 -30 2 0 17 7 32
15 16 8 46 15 66 15 30 0 37 -4 35 -17 -4 -30 13 -30 31 -1 9 15 14 29 12 32
-15 13 -99 14 -135 1z"/>
<path d="M6124 5809 c-7 -13 15 -59 29 -59 5 0 7 9 4 20 -7 28 28 35 84 16 51
-18 59 -19 59 -7 0 30 -159 57 -176 30z"/>
<path d="M6455 5813 c-44 -10 -75 -26 -75 -39 0 -17 1 -17 36 1 16 8 46 15 66
15 30 0 37 -4 35 -17 -4 -30 13 -30 31 -1 9 15 14 29 12 31 -9 8 -84 15 -105
10z"/>
<path d="M1186 5738 c-38 -65 -46 -94 -46 -161 0 -201 211 -337 397 -257 28
12 61 33 74 46 l23 25 -194 194 c-107 107 -203 195 -212 195 -10 0 -28 -19
-42 -42z m18 -42 c-51 -91 -31 -219 46 -293 52 -50 96 -68 175 -68 58 0 78 5
119 28 39 22 46 23 32 8 -25 -27 -99 -51 -161 -51 -132 0 -255 128 -255 266 0
37 21 101 46 139 28 42 26 22 -2 -29z"/>
<path d="M2580 5728 c-36 -64 -44 -102 -37 -177 17 -188 220 -307 394 -232 28
13 61 34 74 47 l23 25 -194 194 c-107 107 -203 195 -212 195 -11 0 -30 -21
-48 -52z m24 -32 c-51 -91 -31 -219 46 -293 52 -50 96 -68 175 -68 58 0 78 5
119 28 39 22 46 23 32 8 -25 -27 -99 -51 -161 -51 -132 0 -255 128 -255 266 0
37 21 101 46 139 28 42 26 22 -2 -29z"/>
<path d="M1971 5722 c-63 -35 -95 -132 -71 -217 26 -92 155 -198 239 -197 82
2 177 66 216 146 23 48 27 65 23 121 -4 72 -22 105 -79 143 -30 21 -42 23 -94
18 -75 -8 -78 -8 -145 -1 -43 5 -62 2 -89 -13z m208 -14 c63 2 89 -1 108 -13
90 -59 83 -227 -13 -300 -55 -42 -122 -68 -159 -61 -77 15 -174 107 -196 188
-12 47 9 134 40 162 27 24 71 36 106 28 17 -3 68 -5 114 -4z"/>
<path d="M2137 5674 c-3 -3 6 -27 20 -52 22 -42 24 -55 19 -125 -4 -59 -2 -77
7 -74 30 10 31 151 2 208 -16 30 -39 51 -48 43z"/>
<path d="M3371 5722 c-63 -35 -95 -132 -71 -217 26 -92 155 -198 239 -197 80
1 171 61 215 142 25 46 28 60 24 121 -4 76 -21 108 -79 147 -30 21 -42 23 -94
18 -75 -8 -78 -8 -145 -1 -43 5 -62 2 -89 -13z m208 -14 c63 2 89 -1 108 -13
90 -59 83 -227 -13 -300 -55 -42 -122 -68 -159 -61 -77 15 -174 107 -196 188
-12 47 9 134 40 162 27 24 71 36 106 28 17 -3 68 -5 114 -4z"/>
<path d="M3537 5674 c-3 -3 6 -27 20 -52 22 -42 24 -55 19 -125 -4 -59 -2 -77
7 -74 30 10 31 151 2 208 -16 30 -39 51 -48 43z"/>
<path d="M6171 5722 c-63 -35 -95 -132 -71 -217 26 -92 155 -198 239 -197 82
2 177 66 216 147 24 49 27 64 22 122 -5 72 -23 103 -78 141 -30 21 -42 23 -94
18 -75 -8 -78 -8 -145 -1 -43 5 -62 2 -89 -13z m208 -14 c63 2 89 -1 108 -13
90 -59 83 -227 -13 -300 -55 -42 -122 -68 -159 -61 -77 15 -174 107 -196 188
-12 47 9 134 40 162 27 24 71 36 106 28 17 -3 68 -5 114 -4z"/>
<path d="M6337 5674 c-3 -3 6 -27 20 -52 22 -42 24 -55 19 -125 -4 -59 -2 -77
7 -74 30 10 31 151 2 208 -16 30 -39 51 -48 43z"/>
<path d="M4190 5177 c0 -2 9 -26 21 -52 14 -32 24 -44 31 -37 12 12 -19 84
-39 90 -7 2 -13 2 -13 -1z"/>
<path d="M2660 5082 c0 -38 7 -110 16 -160 15 -90 15 -92 -5 -118 -68 -86 28
-204 131 -161 29 12 37 12 53 1 47 -35 127 1 146 64 23 77 -34 142 -122 142
-39 0 -48 5 -94 53 -59 60 -91 124 -101 196 -10 73 -24 63 -24 -17z m105 -190
c55 -59 56 -61 26 -51 -17 6 -40 9 -51 6 -15 -4 -21 2 -29 27 -15 49 -22 101
-13 91 5 -6 35 -38 67 -73z"/>
<path d="M6279 5143 c-15 -2 -51 -18 -80 -36 -71 -43 -111 -107 -117 -188 -7
-90 13 -145 73 -206 57 -56 98 -73 183 -73 230 0 335 294 159 445 -60 51 -134
71 -218 58z m99 -33 c107 -25 172 -107 172 -217 -1 -170 -161 -272 -315 -199
-59 27 -77 46 -104 106 -37 82 -22 181 37 243 40 43 78 60 162 76 3 0 24 -4
48 -9z"/>
<path d="M6313 5064 c-8 -21 13 -42 28 -27 13 13 5 43 -11 43 -6 0 -13 -7 -17
-16z"/>
<path d="M6262 5018 c-7 -7 -12 -22 -12 -35 0 -15 -6 -23 -18 -23 -42 0 -56
-48 -21 -72 18 -12 20 -17 10 -35 -16 -31 -4 -53 31 -53 19 0 37 -9 51 -26 24
-28 52 -25 62 7 5 14 16 19 41 19 39 0 52 19 36 54 -8 18 -6 25 9 34 34 21 18
72 -22 72 -13 0 -19 10 -21 32 -3 38 -29 49 -56 25 -15 -13 -20 -14 -36 -1
-24 17 -38 18 -54 2z m48 -40 c16 -10 24 -10 40 0 27 16 28 16 32 -15 2 -20 9
-29 26 -31 26 -4 28 -14 7 -32 -11 -9 -14 -22 -10 -42 6 -27 5 -28 -18 -23
-21 6 -28 2 -39 -20 l-15 -27 -17 27 c-14 21 -23 25 -42 21 -22 -6 -23 -4 -17
25 4 24 2 34 -10 41 -24 13 -21 26 6 30 16 2 23 11 25 31 4 31 5 31 32 15z"/>
<path d="M6194 5008 c-9 -15 27 -41 40 -28 6 6 5 15 -4 25 -15 18 -26 19 -36
3z"/>
<path d="M6437 5013 c-10 -9 -9 -43 1 -43 12 0 32 23 32 37 0 14 -22 18 -33 6z"/>
<path d="M6177 4884 c-14 -15 -6 -34 14 -34 14 0 19 5 17 17 -3 18 -20 27 -31
17z"/>
<path d="M6455 4880 c-8 -13 3 -30 20 -30 20 0 30 21 14 31 -18 11 -26 11 -34
-1z"/>
<path d="M6257 4783 c-10 -9 -8 -43 2 -43 5 0 14 7 21 15 17 21 -4 48 -23 28z"/>
<path d="M6380 4771 c0 -24 18 -37 31 -24 13 13 1 43 -17 43 -8 0 -14 -9 -14
-19z"/>
<path d="M1443 5129 c-117 -22 -215 -120 -242 -241 -11 -49 6 -175 27 -200 14
-18 83 -31 163 -31 142 -1 282 136 283 278 0 28 -4 74 -9 103 -9 62 -26 77
-100 86 -27 4 -57 9 -65 10 -8 2 -34 0 -57 -5z m144 -31 c18 -2 36 -7 39 -11
10 -9 23 -92 23 -147 1 -92 -74 -197 -173 -241 -43 -19 -60 -21 -128 -15 -119
10 -114 5 -124 124 -6 68 -4 85 15 128 28 63 83 120 146 151 50 24 75 25 202
11z"/>
<path d="M2091 5119 c-104 -53 -221 -202 -221 -281 0 -64 55 -139 128 -174 54
-26 152 -30 209 -9 57 22 118 76 146 129 16 31 22 59 22 116 0 65 -4 82 -30
129 -41 74 -83 104 -153 108 -44 3 -67 -1 -101 -18z m75 -32 c47 8 64 -9 57
-55 -3 -20 -14 -44 -24 -52 -10 -8 -21 -27 -24 -42 -4 -16 -13 -28 -21 -28 -7
0 -32 -18 -56 -41 -64 -61 -78 -69 -125 -69 -38 0 -43 3 -43 23 0 13 -5 28
-11 34 -8 8 -7 20 5 45 36 75 178 210 199 189 5 -5 25 -7 43 -4z"/>
<path d="M2696 5113 c10 -40 23 -64 52 -95 30 -33 119 -65 134 -50 13 13 -5
71 -34 108 -25 31 -91 63 -131 64 -25 0 -27 -3 -21 -27z m89 -17 c23 -10 41
-28 55 -56 12 -23 19 -44 17 -47 -3 -2 -26 4 -51 15 -33 15 -50 31 -66 61 -23
47 -15 52 45 27z"/>
<path d="M4024 5109 c-7 -13 15 -59 29 -59 5 0 7 9 4 20 -7 28 28 35 84 16 51
-18 59 -19 59 -7 0 30 -159 57 -176 30z"/>
<path d="M4355 5113 c-42 -9 -75 -26 -75 -39 0 -17 1 -17 36 1 16 8 46 15 66
15 30 0 37 -4 35 -17 -4 -30 13 -30 31 -1 9 15 14 29 12 31 -9 7 -84 15 -105
10z"/>
<path d="M3301 5061 c-90 -127 -80 -282 25 -383 56 -53 126 -82 199 -81 69 1
150 31 186 69 l23 25 -189 190 c-105 105 -198 194 -207 200 -13 7 -21 2 -37
-20z m3 -65 c-51 -91 -31 -219 46 -293 52 -50 96 -68 175 -68 58 0 78 5 119
28 39 22 46 23 32 8 -25 -27 -99 -51 -161 -51 -132 0 -255 128 -255 266 0 37
21 101 46 139 28 42 26 22 -2 -29z"/>
<path d="M4701 5061 c-84 -117 -82 -252 5 -366 40 -53 141 -99 218 -99 69 1
150 31 187 70 l23 25 -199 199 c-110 110 -203 200 -207 200 -4 0 -16 -13 -27
-29z m3 -65 c-51 -91 -31 -219 46 -293 52 -50 96 -68 175 -68 58 0 78 5 119
28 39 22 46 23 32 8 -25 -27 -99 -51 -161 -51 -132 0 -255 128 -255 266 0 37
21 101 46 139 28 42 26 22 -2 -29z"/>
<path d="M5380 5028 c-36 -64 -44 -102 -37 -177 17 -192 228 -312 400 -227 30
14 62 35 72 46 19 21 17 23 -175 215 -107 107 -203 195 -212 195 -11 0 -30
-21 -48 -52z m24 -32 c-51 -91 -31 -219 46 -293 52 -50 96 -68 175 -68 58 0
78 5 119 28 39 22 46 23 32 8 -25 -27 -99 -51 -161 -51 -132 0 -255 128 -255
266 0 37 21 101 46 139 28 42 26 22 -2 -29z"/>
<path d="M4071 5022 c-63 -35 -95 -132 -71 -217 26 -92 155 -198 239 -197 82
2 177 66 216 146 23 48 27 65 23 121 -4 72 -22 105 -79 143 -30 21 -42 23 -94
18 -75 -8 -78 -8 -145 -1 -43 5 -62 2 -89 -13z m208 -14 c63 2 89 -1 108 -13
90 -59 83 -227 -13 -300 -55 -42 -122 -68 -159 -61 -77 15 -174 107 -196 188
-12 47 9 134 40 162 27 24 71 36 106 28 17 -3 68 -5 114 -4z"/>
<path d="M4237 4974 c-3 -3 6 -27 20 -52 22 -42 24 -55 19 -125 -4 -59 -2 -77
7 -74 30 10 31 151 2 208 -16 30 -39 51 -48 43z"/>
<path d="M2660 4382 c0 -38 7 -110 16 -160 15 -90 15 -92 -5 -118 -68 -86 28
-204 131 -161 30 13 37 13 54 0 22 -17 75 -11 110 12 13 8 28 32 35 54 23 76
-34 141 -122 141 -39 0 -48 5 -94 53 -59 60 -91 124 -101 196 -10 73 -24 63
-24 -17z m105 -190 c55 -59 56 -61 26 -51 -17 6 -40 9 -51 6 -15 -4 -21 2 -29
27 -15 49 -22 101 -13 91 5 -6 35 -38 67 -73z"/>
<path d="M3360 4382 c0 -38 7 -110 16 -160 15 -90 15 -92 -5 -118 -68 -86 28
-204 131 -161 29 12 37 12 53 1 47 -35 127 1 146 64 22 73 -36 146 -114 141
-42 -3 -66 11 -115 66 -50 57 -79 118 -88 184 -10 73 -24 63 -24 -17z m105
-190 c55 -59 56 -61 26 -51 -17 6 -40 9 -51 6 -15 -4 -21 2 -29 27 -15 49 -22
101 -13 91 5 -6 35 -38 67 -73z"/>
<path d="M5460 4382 c0 -38 7 -110 16 -160 15 -90 15 -92 -5 -118 -67 -85 28
-203 130 -162 28 12 38 12 59 1 35 -18 60 -16 97 7 44 26 61 82 40 132 -17 41
-63 70 -105 68 -46 -3 -51 -1 -99 43 -53 48 -100 139 -109 210 -10 70 -24 57
-24 -21z m105 -190 c55 -59 56 -61 26 -51 -17 6 -40 9 -51 6 -21 -5 -25 1 -39
76 -5 27 -6 45 -2 40 4 -4 34 -36 66 -71z"/>
<path d="M6345 4440 c-114 -26 -275 -203 -275 -303 0 -46 25 -90 73 -133 158
-139 412 -40 434 170 16 152 -109 295 -232 266z m21 -53 c47 8 64 -9 57 -55
-3 -20 -14 -44 -24 -52 -10 -8 -21 -27 -24 -42 -4 -16 -13 -28 -21 -28 -7 0
-32 -18 -56 -41 -64 -61 -78 -69 -125 -69 -38 0 -43 3 -43 23 0 13 -5 28 -11
34 -8 8 -7 20 5 45 36 75 178 210 199 189 5 -5 25 -7 43 -4z"/>
<path d="M2696 4413 c10 -40 23 -64 52 -95 30 -33 119 -65 134 -50 13 13 -5
71 -34 108 -25 31 -91 63 -131 64 -25 0 -27 -3 -21 -27z m89 -17 c23 -10 41
-28 55 -56 12 -23 19 -44 17 -47 -3 -2 -26 4 -51 15 -33 15 -50 31 -66 61 -23
47 -15 52 45 27z"/>
<path d="M3396 4413 c10 -40 23 -64 52 -96 29 -30 120 -63 135 -48 12 12 -8
72 -35 107 -25 31 -91 63 -131 64 -25 0 -27 -3 -21 -27z m89 -17 c23 -10 41
-28 55 -56 12 -23 19 -44 17 -47 -3 -2 -26 4 -51 15 -33 15 -50 31 -66 61 -23
47 -15 52 45 27z"/>
<path d="M4243 4429 c-117 -22 -215 -120 -242 -241 -11 -49 6 -175 27 -200 14
-18 83 -31 163 -31 142 -1 282 136 283 278 0 28 -4 74 -9 103 -9 62 -26 77
-100 86 -27 4 -57 9 -65 10 -8 2 -34 0 -57 -5z m144 -31 c18 -2 36 -7 39 -11
10 -9 23 -92 23 -147 1 -92 -74 -197 -173 -241 -43 -19 -60 -21 -128 -15 -119
10 -114 5 -124 124 -6 68 -4 85 15 128 28 63 83 120 146 151 50 24 75 25 202
11z"/>
<path d="M4894 4420 c-119 -59 -233 -214 -221 -301 23 -176 284 -241 425 -106
57 54 77 102 77 187 0 65 -4 82 -30 129 -58 105 -153 139 -251 91z m72 -33
c47 8 64 -9 57 -55 -3 -20 -14 -44 -24 -52 -10 -8 -21 -27 -24 -42 -4 -16 -13
-28 -21 -28 -7 0 -32 -18 -56 -41 -64 -61 -78 -69 -125 -69 -38 0 -43 3 -43
23 0 13 -5 28 -11 34 -8 8 -7 20 5 45 36 75 178 210 199 189 5 -5 25 -7 43 -4z"/>
<path d="M5490 4430 c0 -23 33 -87 58 -113 29 -30 120 -63 135 -48 12 12 -8
72 -35 107 -36 45 -158 87 -158 54z m95 -34 c23 -10 41 -28 55 -56 12 -23 19
-44 17 -47 -3 -2 -26 4 -51 15 -33 15 -50 31 -66 61 -23 47 -15 52 45 27z"/>
<path d="M1201 4361 c-66 -92 -80 -205 -37 -296 67 -145 239 -210 378 -142 30
15 63 36 73 47 18 20 16 23 -171 211 -104 105 -197 195 -206 200 -13 7 -21 2
-37 -20z m3 -65 c-51 -91 -31 -219 46 -293 52 -50 96 -68 175 -68 58 0 78 5
119 28 39 22 46 23 32 8 -25 -27 -99 -51 -161 -51 -132 0 -255 128 -255 266 0
37 21 101 46 139 28 42 26 22 -2 -29z"/>
<path d="M1897 4353 c-47 -69 -60 -112 -55 -188 8 -114 63 -195 164 -242 100
-46 240 -26 305 43 l23 24 -199 200 c-110 110 -202 200 -206 200 -3 0 -18 -17
-32 -37z m7 -57 c-51 -91 -31 -219 46 -293 52 -50 96 -68 175 -68 58 0 78 5
119 28 39 22 46 23 32 8 -25 -27 -99 -51 -161 -51 -132 0 -255 128 -255 266 0
37 21 101 46 139 28 42 26 22 -2 -29z"/>
<path d="M1390 3776 c0 -16 43 -95 50 -91 10 6 -4 60 -21 81 -10 13 -29 19
-29 10z"/>
<path d="M2098 3773 c-7 -12 32 -94 42 -88 11 7 -5 65 -24 83 -7 8 -16 10 -18
5z"/>
<path d="M5590 3776 c0 -16 43 -95 50 -91 10 6 -4 60 -21 81 -10 13 -29 19
-29 10z"/>
<path d="M2834 3736 c-88 -27 -196 -126 -240 -221 -41 -86 -27 -144 49 -211
158 -139 412 -40 434 170 13 125 -67 246 -177 269 -14 3 -43 0 -66 -7z m32
-49 c47 8 64 -9 57 -55 -3 -20 -14 -44 -24 -52 -10 -8 -21 -27 -24 -42 -4 -16
-13 -28 -21 -28 -7 0 -32 -18 -56 -41 -64 -61 -78 -69 -125 -69 -38 0 -43 3
-43 23 0 13 -5 28 -11 34 -8 8 -7 20 5 45 36 75 178 210 199 189 5 -5 25 -7
43 -4z"/>
<path d="M3479 3743 c-51 -8 -132 -66 -163 -117 -35 -56 -46 -143 -26 -215 15
-57 98 -142 156 -159 127 -37 249 9 307 117 58 105 42 217 -42 301 -65 65
-137 88 -232 73z m161 -58 c66 -33 110 -108 110 -190 -1 -135 -91 -225 -225
-225 -44 0 -131 37 -157 66 -75 85 -75 228 0 307 72 76 173 92 272 42z"/>
<path d="M3513 3664 c-8 -21 13 -42 28 -27 13 13 5 43 -11 43 -6 0 -13 -7 -17
-16z"/>
<path d="M3462 3618 c-7 -7 -12 -22 -12 -35 0 -15 -6 -23 -18 -23 -42 0 -56
-48 -21 -72 18 -12 20 -17 10 -35 -16 -31 -4 -53 31 -53 19 0 37 -9 51 -26 24
-28 52 -25 62 7 5 14 16 19 41 19 39 0 52 19 36 54 -8 18 -6 25 9 34 34 21 18
72 -22 72 -13 0 -19 10 -21 32 -3 38 -29 49 -56 25 -15 -13 -20 -14 -36 -1
-24 17 -38 18 -54 2z m48 -40 c16 -10 24 -10 40 0 27 16 28 16 32 -15 2 -20 9
-29 26 -31 26 -4 28 -14 7 -32 -11 -9 -14 -22 -10 -42 6 -27 5 -28 -18 -23
-21 6 -28 2 -39 -20 l-15 -27 -17 27 c-14 21 -23 25 -42 21 -22 -6 -23 -4 -17
25 4 24 2 34 -10 41 -24 13 -21 26 6 30 16 2 23 11 25 31 4 31 5 31 32 15z"/>
<path d="M3394 3608 c-9 -15 27 -41 40 -28 6 6 5 15 -4 25 -15 18 -26 19 -36
3z"/>
<path d="M3637 3613 c-10 -9 -9 -43 1 -43 12 0 32 23 32 37 0 14 -22 18 -33 6z"/>
<path d="M3377 3484 c-14 -15 -6 -34 14 -34 14 0 19 5 17 17 -3 18 -20 27 -31
17z"/>
<path d="M3655 3480 c-8 -13 3 -30 20 -30 20 0 30 21 14 31 -18 11 -26 11 -34
-1z"/>
<path d="M3457 3383 c-10 -9 -8 -43 2 -43 5 0 14 7 21 15 17 21 -4 48 -23 28z"/>
<path d="M3580 3371 c0 -24 18 -37 31 -24 13 13 1 43 -17 43 -8 0 -14 -9 -14
-19z"/>
<path d="M4875 3741 c-148 -36 -227 -179 -184 -336 14 -53 99 -136 155 -153
129 -38 248 8 309 119 104 191 -70 420 -280 370z m103 -31 c107 -25 172 -107
172 -217 -1 -170 -161 -272 -315 -199 -59 27 -77 46 -104 106 -37 82 -22 181
37 243 40 43 78 60 162 76 3 0 24 -4 48 -9z"/>
<path d="M4913 3664 c-8 -21 13 -42 28 -27 13 13 5 43 -11 43 -6 0 -13 -7 -17
-16z"/>
<path d="M4862 3618 c-7 -7 -12 -22 -12 -35 0 -15 -6 -23 -18 -23 -42 0 -56
-48 -21 -72 18 -12 20 -17 10 -35 -16 -31 -4 -53 31 -53 19 0 37 -9 51 -26 24
-28 52 -25 62 7 5 14 16 19 41 19 39 0 52 19 36 54 -8 18 -6 25 9 34 34 21 18
72 -22 72 -13 0 -19 10 -21 32 -3 38 -29 49 -56 25 -15 -13 -20 -14 -36 -1
-24 17 -38 18 -54 2z m48 -40 c16 -10 24 -10 40 0 27 16 28 16 32 -15 2 -20 9
-29 26 -31 26 -4 28 -14 7 -32 -11 -9 -14 -22 -10 -42 6 -27 5 -28 -18 -23
-21 6 -28 2 -39 -20 l-15 -27 -17 27 c-14 21 -23 25 -42 21 -22 -6 -23 -4 -17
25 4 24 2 34 -10 41 -24 13 -21 26 6 30 16 2 23 11 25 31 4 31 5 31 32 15z"/>
<path d="M4794 3608 c-9 -15 27 -41 40 -28 6 6 5 15 -4 25 -15 18 -26 19 -36
3z"/>
<path d="M5037 3613 c-10 -9 -9 -43 1 -43 12 0 32 23 32 37 0 14 -22 18 -33 6z"/>
<path d="M4777 3484 c-14 -15 -6 -34 14 -34 14 0 19 5 17 17 -3 18 -20 27 -31
17z"/>
<path d="M5055 3480 c-8 -13 3 -30 20 -30 20 0 30 21 14 31 -18 11 -26 11 -34
-1z"/>
<path d="M4857 3383 c-10 -9 -8 -43 2 -43 5 0 14 7 21 15 17 21 -4 48 -23 28z"/>
<path d="M4980 3371 c0 -24 18 -37 31 -24 13 13 1 43 -17 43 -8 0 -14 -9 -14
-19z"/>
<path d="M6338 3735 c-86 -22 -204 -129 -247 -226 -37 -81 -22 -140 52 -205
128 -113 328 -73 410 81 16 30 22 58 22 115 0 64 -4 82 -29 128 -51 92 -123
129 -208 107z m28 -48 c47 8 64 -9 57 -55 -3 -20 -14 -44 -24 -52 -10 -8 -21
-27 -24 -42 -4 -16 -13 -28 -21 -28 -7 0 -32 -18 -56 -41 -64 -61 -78 -69
-125 -69 -38 0 -43 3 -43 23 0 13 -5 28 -11 34 -8 8 -7 20 5 45 36 75 178 210
199 189 5 -5 25 -7 43 -4z"/>
<path d="M4237 3729 c-58 -14 -108 -43 -153 -91 -77 -80 -100 -154 -81 -264 7
-39 18 -78 25 -86 14 -17 92 -32 168 -32 101 1 211 79 257 183 22 49 26 113
12 199 -9 62 -26 77 -100 87 -27 3 -59 8 -70 10 -11 2 -37 -1 -58 -6z m150
-31 c18 -2 36 -7 39 -11 10 -9 23 -92 23 -147 1 -92 -74 -197 -173 -241 -43
-19 -60 -21 -128 -15 -119 10 -114 5 -124 124 -6 68 -4 85 15 128 28 63 83
120 146 151 50 24 75 25 202 11z"/>
<path d="M1224 3709 c-7 -13 15 -59 29 -59 5 0 7 9 4 20 -7 28 28 35 84 16 51
-18 59 -19 59 -7 0 30 -159 57 -176 30z"/>
<path d="M1541 3710 c-34 -8 -69 -35 -59 -45 3 -3 18 1 34 10 16 8 46 15 66
15 30 0 37 -4 35 -17 -4 -30 13 -30 31 -1 9 15 14 29 12 31 -11 10 -88 15
-119 7z"/>
<path d="M1924 3706 c-7 -17 12 -56 28 -56 5 0 8 9 5 20 -7 28 28 35 84 16 51
-18 59 -19 59 -7 0 32 -164 57 -176 27z"/>
<path d="M2241 3710 c-34 -8 -69 -35 -59 -45 3 -3 18 1 34 10 16 8 46 15 66
15 30 0 37 -4 35 -17 -4 -30 13 -30 31 -1 9 15 14 29 12 31 -11 10 -88 15
-119 7z"/>
<path d="M5424 3709 c-7 -13 15 -59 29 -59 5 0 7 9 4 20 -7 28 28 35 84 16 51
-18 59 -19 59 -7 0 30 -159 57 -176 30z"/>
<path d="M5741 3710 c-33 -8 -69 -35 -59 -45 3 -3 18 1 34 10 16 8 46 15 66
15 30 0 37 -4 35 -17 -4 -30 13 -30 31 -1 9 15 14 29 12 31 -11 10 -88 14
-119 7z"/>
<path d="M1271 3622 c-63 -35 -95 -132 -71 -217 26 -92 155 -198 239 -197 82
2 177 66 216 146 23 48 27 65 23 121 -4 72 -22 105 -79 143 -30 21 -42 23 -94
18 -75 -8 -78 -8 -145 -1 -43 5 -62 2 -89 -13z m208 -14 c63 2 89 -1 108 -13
90 -59 83 -227 -13 -300 -55 -42 -122 -68 -159 -61 -77 15 -174 107 -196 188
-12 47 9 134 40 162 27 24 71 36 106 28 17 -3 68 -5 114 -4z"/>
<path d="M1437 3574 c-3 -3 6 -27 20 -52 22 -42 24 -55 19 -125 -4 -59 -2 -77
7 -74 30 10 31 151 2 208 -16 30 -39 51 -48 43z"/>
<path d="M1971 3622 c-63 -35 -95 -132 -71 -217 26 -92 155 -198 239 -197 82
2 177 66 216 147 24 49 27 64 22 122 -5 72 -23 103 -78 141 -30 21 -42 23 -94
18 -75 -8 -78 -8 -145 -1 -43 5 -62 2 -89 -13z m208 -14 c63 2 89 -1 108 -13
90 -59 83 -227 -13 -300 -55 -42 -122 -68 -159 -61 -77 15 -174 107 -196 188
-12 47 9 134 40 162 27 24 71 36 106 28 17 -3 68 -5 114 -4z"/>
<path d="M2137 3574 c-3 -3 6 -27 20 -52 22 -42 24 -55 19 -125 -4 -59 -2 -77
7 -74 30 10 31 151 2 208 -16 30 -39 51 -48 43z"/>
<path d="M5471 3622 c-63 -35 -95 -132 -71 -217 26 -93 155 -198 242 -197 53
1 154 57 189 105 40 55 52 101 46 170 -6 66 -25 99 -78 135 -30 21 -42 23 -94
18 -75 -8 -78 -8 -145 -1 -43 5 -62 2 -89 -13z m208 -14 c63 2 89 -1 108 -13
90 -59 83 -227 -13 -300 -55 -42 -122 -68 -159 -61 -77 15 -174 107 -196 188
-12 47 9 134 40 162 27 24 71 36 106 28 17 -3 68 -5 114 -4z"/>
<path d="M5637 3574 c-3 -3 6 -27 20 -52 22 -42 24 -55 19 -125 -4 -59 -2 -77
7 -74 30 10 31 151 2 208 -16 30 -39 51 -48 43z"/>
<path d="M3498 3073 c-7 -12 32 -94 42 -88 11 7 -5 65 -24 83 -7 8 -16 10 -18
5z"/>
<path d="M1263 2948 c3 -57 11 -128 18 -159 12 -53 11 -58 -9 -84 -68 -87 26
-205 130 -162 30 13 37 13 54 0 22 -17 75 -11 110 12 13 8 28 32 35 54 22 72
-37 144 -114 140 -42 -3 -66 11 -115 66 -50 57 -79 118 -88 184 -4 28 -11 51
-17 51 -6 0 -8 -36 -4 -102z m102 -156 c49 -53 55 -61 31 -53 -15 6 -38 11
-52 11 -16 0 -27 8 -33 23 -12 33 -22 102 -12 91 4 -5 34 -37 66 -72z"/>
<path d="M4060 2982 c0 -38 7 -110 16 -160 15 -90 15 -92 -5 -118 -68 -86 28
-204 131 -161 29 12 37 12 53 1 47 -34 127 1 145 64 23 75 -34 146 -114 140
-41 -2 -92 33 -138 96 -39 53 -56 96 -64 157 -10 71 -24 60 -24 -19z m105
-190 c55 -59 56 -61 26 -51 -17 6 -40 9 -51 6 -15 -4 -21 2 -29 27 -15 49 -22
101 -13 91 5 -6 35 -38 67 -73z"/>
<path d="M4875 3041 c-120 -29 -195 -125 -195 -251 0 -83 23 -133 83 -186 52
-46 102 -64 176 -64 94 0 169 46 216 131 104 191 -70 420 -280 370z m103 -31
c106 -25 172 -109 172 -217 -1 -170 -161 -272 -315 -199 -59 27 -77 46 -104
106 -37 82 -22 181 37 243 40 43 78 60 162 76 3 0 24 -4 48 -9z"/>
<path d="M4913 2964 c-8 -21 13 -42 28 -27 13 13 5 43 -11 43 -6 0 -13 -7 -17
-16z"/>
<path d="M4862 2918 c-7 -7 -12 -22 -12 -35 0 -15 -6 -23 -18 -23 -42 0 -56
-48 -21 -72 18 -12 20 -17 10 -35 -16 -31 -4 -53 31 -53 19 0 37 -9 51 -26 24
-28 52 -25 62 7 5 14 16 19 41 19 39 0 52 19 36 54 -8 18 -6 25 9 34 34 21 18
72 -22 72 -13 0 -19 10 -21 32 -3 38 -29 49 -56 25 -15 -13 -20 -14 -36 -1
-24 17 -38 18 -54 2z m48 -40 c16 -10 24 -10 40 0 27 16 28 16 32 -15 2 -20 9
-29 26 -31 26 -4 28 -14 7 -32 -11 -9 -14 -22 -10 -42 6 -27 5 -28 -18 -23
-21 6 -28 2 -39 -20 l-15 -27 -17 27 c-14 21 -23 25 -42 21 -22 -6 -23 -4 -17
25 4 24 2 34 -10 41 -24 13 -21 26 6 30 16 2 23 11 25 31 4 31 5 31 32 15z"/>
<path d="M4794 2908 c-9 -15 27 -41 40 -28 6 6 5 15 -4 25 -15 18 -26 19 -36
3z"/>
<path d="M5037 2913 c-10 -9 -9 -43 1 -43 12 0 32 23 32 37 0 14 -22 18 -33 6z"/>
<path d="M4777 2784 c-14 -15 -6 -34 14 -34 14 0 19 5 17 17 -3 18 -20 27 -31
17z"/>
<path d="M5055 2780 c-8 -13 3 -30 20 -30 20 0 30 21 14 31 -18 11 -26 11 -34
-1z"/>
<path d="M4857 2683 c-10 -9 -8 -43 2 -43 5 0 14 7 21 15 17 21 -4 48 -23 28z"/>
<path d="M4980 2671 c0 -24 18 -37 31 -24 13 13 1 43 -17 43 -8 0 -14 -9 -14
-19z"/>
<path d="M5575 3041 c-149 -36 -229 -181 -183 -333 17 -59 88 -133 145 -152
133 -45 262 4 320 122 95 194 -75 413 -282 363z m103 -31 c104 -24 172 -110
172 -216 -1 -171 -161 -273 -315 -200 -59 27 -77 46 -104 106 -37 82 -22 181
37 243 40 43 78 60 162 76 3 0 24 -4 48 -9z"/>
<path d="M5613 2964 c-8 -21 13 -42 28 -27 13 13 5 43 -11 43 -6 0 -13 -7 -17
-16z"/>
<path d="M5562 2918 c-7 -7 -12 -22 -12 -35 0 -15 -6 -23 -18 -23 -42 0 -56
-48 -21 -72 18 -12 20 -17 10 -35 -16 -31 -4 -53 31 -53 19 0 37 -9 51 -26 24
-28 52 -25 62 7 5 14 16 19 41 19 39 0 52 19 36 54 -8 18 -6 25 9 34 34 21 18
72 -22 72 -13 0 -19 10 -21 32 -3 38 -29 49 -56 25 -15 -13 -20 -14 -36 -1
-24 17 -38 18 -54 2z m48 -40 c16 -10 24 -10 40 0 27 16 28 16 32 -15 2 -20 9
-29 26 -31 26 -4 28 -14 7 -32 -11 -9 -14 -22 -10 -42 6 -27 5 -28 -18 -23
-21 6 -28 2 -39 -20 l-15 -27 -17 27 c-14 21 -23 25 -42 21 -22 -6 -23 -4 -17
25 4 24 2 34 -10 41 -24 13 -21 26 6 30 16 2 23 11 25 31 4 31 5 31 32 15z"/>
<path d="M5494 2908 c-9 -15 27 -41 40 -28 6 6 5 15 -4 25 -15 18 -26 19 -36
3z"/>
<path d="M5737 2913 c-10 -9 -9 -43 1 -43 12 0 32 23 32 37 0 14 -22 18 -33 6z"/>
<path d="M5477 2784 c-14 -15 -6 -34 14 -34 14 0 19 5 17 17 -3 18 -20 27 -31
17z"/>
<path d="M5755 2780 c-8 -13 3 -30 20 -30 20 0 30 21 14 31 -18 11 -26 11 -34
-1z"/>
<path d="M5557 2683 c-10 -9 -8 -43 2 -43 5 0 14 7 21 15 17 21 -4 48 -23 28z"/>
<path d="M5680 2671 c0 -24 18 -37 31 -24 13 13 1 43 -17 43 -8 0 -14 -9 -14
-19z"/>
<path d="M1296 3013 c10 -40 23 -64 52 -96 29 -30 120 -63 135 -48 12 12 -8
72 -35 107 -25 31 -91 63 -131 64 -25 0 -27 -3 -21 -27z m89 -17 c23 -10 41
-28 55 -56 12 -23 19 -44 17 -47 -3 -2 -26 4 -51 15 -33 15 -50 31 -66 61 -23
47 -15 52 45 27z"/>
<path d="M4097 3032 c-9 -14 22 -84 49 -113 31 -32 122 -65 137 -50 12 12 -8
72 -35 107 -34 42 -136 81 -151 56z m88 -36 c23 -10 41 -28 55 -56 12 -23 19
-44 17 -47 -3 -2 -26 4 -51 15 -33 15 -50 31 -66 61 -23 47 -15 52 45 27z"/>
<path d="M6337 3029 c-58 -14 -108 -44 -153 -91 -77 -80 -100 -154 -81 -264 7
-39 18 -78 25 -86 14 -17 92 -32 168 -32 138 1 274 137 277 278 1 75 -13 153
-32 169 -9 8 -36 17 -61 20 -25 4 -58 8 -75 11 -16 3 -47 1 -68 -5z m150 -31
c18 -2 36 -7 39 -11 10 -9 23 -92 23 -147 1 -92 -74 -197 -173 -241 -43 -19
-60 -21 -128 -15 -119 10 -114 5 -124 124 -6 68 -4 85 15 128 28 63 83 120
146 151 50 24 75 25 202 11z"/>
<path d="M3330 3010 c-12 -7 -12 -12 0 -34 16 -31 35 -35 27 -6 -7 28 28 35
84 16 51 -18 59 -19 59 -7 0 29 -134 54 -170 31z"/>
<path d="M3641 3010 c-33 -8 -69 -35 -59 -45 3 -3 18 1 34 10 16 8 46 15 66
15 30 0 37 -4 35 -17 -4 -30 13 -30 31 -1 9 15 14 29 12 31 -11 10 -88 14
-119 7z"/>
<path d="M1897 2953 c-47 -69 -60 -112 -55 -188 8 -113 57 -188 155 -237 53
-26 76 -32 129 -31 68 1 153 33 189 73 18 20 16 23 -180 220 -110 110 -202
200 -206 200 -3 0 -18 -17 -32 -37z m7 -57 c-51 -91 -31 -219 46 -293 52 -50
96 -68 175 -68 58 0 78 5 119 28 39 22 46 23 32 8 -25 -27 -99 -51 -161 -51
-132 0 -255 128 -255 266 0 37 21 101 46 139 28 42 26 22 -2 -29z"/>
<path d="M2593 2947 c-43 -63 -56 -107 -51 -182 6 -82 29 -133 85 -187 87 -84
211 -106 314 -56 31 16 64 37 74 48 18 20 16 23 -175 215 -107 107 -201 195
-210 195 -8 0 -25 -15 -37 -33z m11 -51 c-51 -91 -31 -219 46 -293 52 -50 96
-68 175 -68 58 0 78 5 119 28 39 22 46 23 32 8 -25 -27 -99 -51 -161 -51 -132
0 -255 128 -255 266 0 37 21 101 46 139 28 42 26 22 -2 -29z"/>
<path d="M3371 2922 c-63 -35 -95 -132 -71 -217 26 -92 155 -198 239 -197 78
1 172 63 215 141 25 47 28 61 24 122 -4 76 -21 108 -79 147 -30 21 -42 23 -94
18 -75 -8 -78 -8 -145 -1 -43 5 -62 2 -89 -13z m208 -14 c63 2 89 -1 108 -13
90 -59 83 -227 -13 -300 -55 -42 -122 -68 -159 -61 -77 15 -174 107 -196 188
-12 47 9 134 40 162 27 24 71 36 106 28 17 -3 68 -5 114 -4z"/>
<path d="M3537 2874 c-3 -3 6 -27 20 -52 22 -42 24 -55 19 -125 -4 -59 -2 -77
7 -74 30 10 31 151 2 208 -16 30 -39 51 -48 43z"/>
<path d="M5460 2282 c0 -38 7 -110 16 -160 15 -90 15 -92 -5 -118 -67 -85 28
-203 130 -162 29 12 38 12 59 1 52 -28 123 5 141 66 9 32 9 44 -6 75 -20 41
-63 68 -103 66 -46 -3 -51 -1 -99 43 -53 48 -100 139 -109 210 -10 70 -24 57
-24 -21z m105 -190 c55 -59 56 -61 26 -51 -17 6 -40 9 -51 6 -16 -4 -22 2 -30
31 -9 34 -14 91 -7 81 2 -2 29 -32 62 -67z"/>
<path d="M2825 2326 c-62 -20 -97 -41 -142 -88 -46 -47 -80 -114 -84 -168 -5
-62 12 -168 30 -183 20 -18 98 -31 172 -30 135 2 272 141 273 277 0 74 -15
154 -31 167 -12 10 -137 38 -168 38 -5 0 -28 -6 -50 -13z m162 -28 c18 -2 36
-7 39 -11 10 -9 23 -92 23 -147 1 -92 -74 -197 -173 -241 -43 -19 -60 -21
-128 -15 -119 10 -114 5 -124 124 -6 68 -4 85 15 128 28 63 83 120 146 151 50
24 75 25 202 11z"/>
<path d="M4943 2329 c-60 -11 -112 -41 -159 -91 -58 -62 -62 -68 -78 -132 -13
-48 -14 -71 -4 -130 13 -77 29 -106 61 -106 12 0 46 -5 76 -11 76 -16 152 6
223 64 97 79 126 169 103 315 -9 62 -26 77 -100 86 -27 4 -57 9 -65 10 -8 2
-34 0 -57 -5z m144 -31 c18 -2 36 -7 39 -11 10 -9 23 -92 23 -147 1 -92 -74
-197 -173 -241 -43 -19 -60 -21 -128 -15 -119 10 -114 5 -124 124 -6 68 -4 85
15 128 28 63 83 120 146 151 50 24 75 25 202 11z"/>
<path d="M5490 2330 c0 -23 33 -87 58 -113 29 -30 120 -63 135 -48 12 12 -8
72 -35 107 -36 45 -158 87 -158 54z m95 -34 c23 -10 41 -28 55 -56 12 -23 19
-44 17 -47 -3 -2 -26 4 -51 15 -33 15 -50 31 -66 61 -23 47 -15 52 45 27z"/>
<path d="M1890 2243 c-43 -67 -53 -107 -48 -182 8 -110 58 -185 155 -233 53
-26 76 -32 129 -31 68 1 153 33 189 73 18 20 16 23 -180 220 -110 110 -203
200 -207 200 -5 0 -22 -21 -38 -47z m14 -47 c-51 -91 -31 -219 46 -293 52 -50
96 -68 175 -68 58 0 78 5 119 28 39 22 46 23 32 8 -25 -27 -99 -51 -161 -51
-132 0 -255 128 -255 266 0 37 21 101 46 139 28 42 26 22 -2 -29z"/>
<path d="M1193 2247 c-43 -63 -56 -107 -51 -182 8 -114 68 -200 173 -246 93
-42 234 -19 296 47 l23 25 -194 194 c-107 107 -202 195 -210 195 -8 0 -25 -15
-37 -33z m11 -51 c-51 -91 -31 -219 46 -293 52 -50 96 -68 175 -68 58 0 78 5
119 28 39 22 46 23 32 8 -25 -27 -99 -51 -161 -51 -132 0 -255 128 -255 266 0
37 21 101 46 139 28 42 26 22 -2 -29z"/>
<path d="M3280 2228 c-36 -64 -44 -102 -37 -177 17 -188 220 -307 394 -232 28
13 61 34 74 47 l23 25 -194 194 c-107 107 -203 195 -212 195 -11 0 -30 -21
-48 -52z m24 -32 c-51 -91 -31 -219 46 -293 52 -50 96 -68 175 -68 58 0 78 5
119 28 39 22 46 23 32 8 -25 -27 -99 -51 -161 -51 -132 0 -255 128 -255 266 0
37 21 101 46 139 28 42 26 22 -2 -29z"/>
<path d="M3993 2247 c-43 -63 -56 -107 -51 -182 8 -114 63 -195 168 -243 98
-46 236 -25 301 44 l23 25 -194 194 c-107 107 -202 195 -210 195 -8 0 -25 -15
-37 -33z m11 -51 c-51 -91 -31 -219 46 -293 52 -50 96 -68 175 -68 58 0 78 5
119 28 39 22 46 23 32 8 -25 -27 -99 -51 -161 -51 -132 0 -255 128 -255 266 0
37 21 101 46 139 28 42 26 22 -2 -29z"/>
<path d="M6080 2228 c-36 -64 -44 -102 -37 -177 17 -192 228 -311 400 -227 30
14 62 35 72 46 18 20 16 23 -175 215 -107 107 -202 195 -212 195 -11 0 -29
-20 -48 -52z m24 -32 c-51 -91 -31 -219 46 -293 52 -50 96 -68 175 -68 58 0
78 5 119 28 39 22 46 23 32 8 -25 -27 -99 -51 -161 -51 -132 0 -255 128 -255
266 0 37 21 101 46 139 28 42 26 22 -2 -29z"/>
<path d="M2845 1641 c-115 -28 -275 -204 -275 -304 0 -46 25 -90 73 -133 128
-113 329 -73 410 81 16 30 21 59 21 115 1 65 -3 82 -28 128 -39 69 -81 101
-156 117 -8 1 -28 -1 -45 -4z m21 -54 c47 8 64 -9 57 -55 -3 -20 -14 -44 -24
-52 -10 -8 -21 -27 -24 -42 -4 -16 -13 -28 -21 -28 -7 0 -32 -18 -56 -41 -64
-61 -78 -69 -125 -69 -38 0 -43 3 -43 23 0 13 -5 28 -11 34 -8 8 -7 20 5 45
36 75 178 210 199 189 5 -5 25 -7 43 -4z"/>
<path d="M3479 1643 c-51 -8 -132 -66 -163 -116 -36 -58 -45 -142 -25 -215 17
-61 96 -142 155 -160 127 -37 248 8 307 116 58 106 42 218 -42 302 -65 65
-137 88 -232 73z m161 -58 c66 -33 110 -108 110 -190 -1 -135 -91 -225 -225
-225 -44 0 -131 37 -157 66 -75 85 -75 228 0 307 72 76 173 92 272 42z"/>
<path d="M3513 1564 c-8 -21 13 -42 28 -27 13 13 5 43 -11 43 -6 0 -13 -7 -17
-16z"/>
<path d="M3462 1518 c-7 -7 -12 -22 -12 -35 0 -15 -6 -23 -18 -23 -42 0 -56
-48 -21 -72 18 -12 20 -17 10 -35 -16 -31 -4 -53 31 -53 19 0 37 -9 51 -26 24
-28 52 -25 62 7 5 14 16 19 41 19 39 0 52 19 36 54 -8 18 -6 25 9 34 34 21 18
72 -22 72 -13 0 -19 10 -21 32 -3 38 -29 49 -56 25 -15 -13 -20 -14 -36 -1
-24 17 -38 18 -54 2z m48 -40 c16 -10 24 -10 40 0 27 16 28 16 32 -15 2 -20 9
-29 26 -31 26 -4 28 -14 7 -32 -11 -9 -14 -22 -10 -42 6 -27 5 -28 -18 -23
-21 6 -28 2 -39 -20 l-15 -27 -17 27 c-14 21 -23 25 -42 21 -22 -6 -23 -4 -17
25 4 24 2 34 -10 41 -24 13 -21 26 6 30 16 2 23 11 25 31 4 31 5 31 32 15z"/>
<path d="M3394 1508 c-9 -15 27 -41 40 -28 6 6 5 15 -4 25 -15 18 -26 19 -36
3z"/>
<path d="M3637 1513 c-10 -9 -9 -43 1 -43 12 0 32 23 32 37 0 14 -22 18 -33 6z"/>
<path d="M3377 1384 c-14 -15 -6 -34 14 -34 14 0 19 5 17 17 -3 18 -20 27 -31
17z"/>
<path d="M3655 1380 c-8 -13 3 -30 20 -30 20 0 30 21 14 31 -18 11 -26 11 -34
-1z"/>
<path d="M3457 1283 c-10 -9 -8 -43 2 -43 5 0 14 7 21 15 17 21 -4 48 -23 28z"/>
<path d="M3580 1271 c0 -24 18 -37 31 -24 13 13 1 43 -17 43 -8 0 -14 -9 -14
-19z"/>
<path d="M4879 1643 c-51 -8 -132 -66 -163 -117 -39 -62 -48 -162 -21 -231 20
-54 98 -127 153 -143 127 -38 246 8 307 119 24 44 29 66 29 119 0 166 -137
279 -305 253z m99 -33 c107 -25 172 -107 172 -217 -1 -170 -161 -272 -315
-199 -59 27 -77 46 -104 106 -37 82 -22 181 37 243 40 43 78 60 162 76 3 0 24
-4 48 -9z"/>
<path d="M4913 1564 c-8 -21 13 -42 28 -27 13 13 5 43 -11 43 -6 0 -13 -7 -17
-16z"/>
<path d="M4862 1518 c-7 -7 -12 -22 -12 -35 0 -15 -6 -23 -18 -23 -42 0 -56
-48 -21 -72 18 -12 20 -17 10 -35 -16 -31 -4 -53 31 -53 19 0 37 -9 51 -26 24
-28 52 -25 62 7 5 14 16 19 41 19 39 0 52 19 36 54 -8 18 -6 25 9 34 34 21 18
72 -22 72 -13 0 -19 10 -21 32 -3 38 -29 49 -56 25 -15 -13 -20 -14 -36 -1
-24 17 -38 18 -54 2z m48 -40 c16 -10 24 -10 40 0 27 16 28 16 32 -15 2 -20 9
-29 26 -31 26 -4 28 -14 7 -32 -11 -9 -14 -22 -10 -42 6 -27 5 -28 -18 -23
-21 6 -28 2 -39 -20 l-15 -27 -17 27 c-14 21 -23 25 -42 21 -22 -6 -23 -4 -17
25 4 24 2 34 -10 41 -24 13 -21 26 6 30 16 2 23 11 25 31 4 31 5 31 32 15z"/>
<path d="M4794 1508 c-9 -15 27 -41 40 -28 6 6 5 15 -4 25 -15 18 -26 19 -36
3z"/>
<path d="M5037 1513 c-10 -9 -9 -43 1 -43 12 0 32 23 32 37 0 14 -22 18 -33 6z"/>
<path d="M4777 1384 c-14 -15 -6 -34 14 -34 14 0 19 5 17 17 -3 18 -20 27 -31
17z"/>
<path d="M5055 1380 c-8 -13 3 -30 20 -30 20 0 30 21 14 31 -18 11 -26 11 -34
-1z"/>
<path d="M4857 1283 c-10 -9 -8 -43 2 -43 5 0 14 7 21 15 17 21 -4 48 -23 28z"/>
<path d="M4980 1271 c0 -24 18 -37 31 -24 13 13 1 43 -17 43 -8 0 -14 -9 -14
-19z"/>
<path d="M6160 1588 c0 -34 7 -106 16 -159 16 -97 16 -98 -5 -125 -68 -86 28
-204 131 -161 30 13 37 13 54 0 22 -17 75 -11 110 12 13 8 28 32 35 54 10 32
9 44 -7 76 -18 39 -66 68 -108 64 -39 -3 -47 1 -95 46 -56 52 -97 131 -107
203 -9 72 -24 65 -24 -10z m105 -196 c51 -55 55 -62 30 -52 -16 6 -40 10 -54
8 -19 -2 -26 3 -31 22 -12 47 -19 103 -11 94 4 -5 34 -37 66 -72z"/>
<path d="M1392 1620 c-61 -28 -167 -137 -197 -202 -42 -89 -29 -146 48 -214
128 -113 329 -73 410 81 16 30 21 59 21 115 1 65 -3 82 -29 129 -41 75 -83
104 -153 108 -42 3 -69 -2 -100 -17z m74 -33 c47 8 64 -9 57 -55 -3 -20 -14
-44 -24 -52 -10 -8 -21 -27 -24 -42 -4 -16 -13 -28 -21 -28 -7 0 -32 -18 -56
-41 -64 -61 -78 -69 -125 -69 -38 0 -43 3 -43 23 0 13 -5 28 -11 34 -8 8 -7
20 5 45 36 75 178 210 199 189 5 -5 25 -7 43 -4z"/>
<path d="M2143 1629 c-60 -11 -112 -41 -159 -91 -58 -62 -62 -68 -78 -132 -13
-48 -14 -71 -4 -130 6 -39 18 -78 25 -87 15 -18 91 -33 169 -33 101 1 211 79
257 183 22 49 26 113 12 199 -9 62 -26 77 -100 86 -27 4 -57 9 -65 10 -8 2
-34 0 -57 -5z m144 -31 c18 -2 36 -7 39 -11 10 -9 23 -92 23 -147 1 -92 -74
-197 -173 -241 -43 -19 -60 -21 -128 -15 -119 10 -114 5 -124 124 -6 68 -4 85
15 128 28 63 83 120 146 151 50 24 75 25 202 11z"/>
<path d="M4237 1629 c-117 -28 -210 -123 -236 -241 -11 -49 6 -175 27 -200 14
-18 83 -31 163 -31 142 -1 282 136 283 278 0 76 -15 153 -33 168 -9 8 -36 17
-61 20 -25 4 -58 8 -75 11 -16 3 -47 1 -68 -5z m150 -31 c18 -2 36 -7 39 -11
10 -9 23 -92 23 -147 1 -92 -74 -197 -173 -241 -43 -19 -60 -21 -128 -15 -119
10 -114 5 -124 124 -6 68 -4 85 15 128 28 63 83 120 146 151 50 24 75 25 202
11z"/>
<path d="M6197 1632 c-9 -14 22 -84 49 -113 31 -32 122 -65 137 -50 12 12 -8
72 -35 107 -34 42 -136 81 -151 56z m88 -36 c23 -10 41 -28 55 -56 12 -23 19
-44 17 -47 -3 -2 -26 4 -51 15 -33 15 -50 31 -66 61 -23 47 -15 52 45 27z"/>
<path d="M5401 1561 c-77 -108 -82 -237 -13 -339 82 -123 250 -162 377 -88 83
49 89 37 -121 247 -104 105 -197 194 -206 200 -13 7 -21 2 -37 -20z m3 -65
c-51 -91 -31 -219 46 -293 52 -50 96 -68 175 -68 58 0 78 5 119 28 39 22 46
23 32 8 -25 -27 -99 -51 -161 -51 -132 0 -255 128 -255 266 0 37 21 101 46
139 28 42 26 22 -2 -29z"/>
<path d="M3357 762 c-15 -16 -17 -51 -17 -280 0 -258 0 -261 22 -276 20 -14
86 -16 518 -16 432 0 498 2 518 16 22 15 22 18 22 278 0 242 -1 264 -18 279
-17 15 -68 17 -524 17 -476 0 -506 -1 -521 -18z m349 -189 c-4 -16 -16 -40
-27 -55 -20 -28 -20 -28 0 -55 11 -16 23 -40 27 -55 l6 -28 -87 0 -87 0 6 28
c4 15 16 40 27 55 18 25 19 31 6 45 -11 14 -37 74 -37 88 0 2 39 4 86 4 l86 0
-6 -27z m206 -77 c24 -35 -7 -106 -46 -106 -31 0 -46 18 -46 55 0 61 62 95 92
51z m120 0 c24 -35 -7 -106 -46 -106 -31 0 -46 18 -46 55 0 61 62 95 92 51z
m176 7 c2 -8 -6 -13 -22 -13 -31 0 -44 -17 -15 -22 30 -4 47 -33 33 -55 -14
-23 -67 -29 -83 -9 -20 24 -3 41 20 20 15 -14 22 -15 32 -5 9 9 9 14 -3 21 -8
5 -23 10 -32 10 -13 0 -17 7 -16 28 1 15 7 30 13 35 15 11 68 4 73 -10z m-108
-33 c0 -21 -24 -28 -35 -10 -8 14 3 30 21 30 8 0 14 -9 14 -20z m-2 -57 c5
-17 -26 -29 -40 -15 -6 6 -7 15 -3 22 9 14 37 9 43 -7z"/>
<path d="M3580 560 c0 -5 20 -10 45 -10 25 0 45 5 45 10 0 6 -20 10 -45 10
-25 0 -45 -4 -45 -10z"/>
<path d="M3600 455 c-11 -13 -7 -15 25 -15 32 0 36 2 25 15 -7 8 -18 15 -25
15 -7 0 -18 -7 -25 -15z"/>
<path d="M3857 484 c-4 -4 -7 -20 -7 -36 0 -23 4 -29 18 -26 11 2 17 13 17 32
0 29 -14 43 -28 30z"/>
<path d="M3977 484 c-4 -4 -7 -20 -7 -36 0 -23 4 -29 18 -26 11 2 17 13 17 32
0 29 -14 43 -28 30z"/>
</g>
</svg>
